<?xml version="1.0" encoding="UTF-8"?>
<svg xmlns="http://www.w3.org/2000/svg" viewBox="0 0 722.85 701.97">
  <path style="fill:#326ce5" d="m 365.31,184.81 a 46.72,46.34 0 0 0 -17.91,4.53 l -244.34,116.75 a 46.72,46.34 0 0 0 -25.28,31.44 L 17.5,599.78 A 46.72,46.34 0 0 0 23.84,635.31 46.72,46.34 0 0 0 26.5,639 l 169.13,210.28 a 46.72,46.34 0 0 0 36.53,17.44 l 271.22,-0.06 A 46.72,46.34 0 0 0 539.91,849.25 L 708.97,638.94 A 46.72,46.34 0 0 0 718,599.72 l -60.38,-262.25 a 46.72,46.34 0 0 0 -25.28,-31.44 l -244.38,-116.69 A 46.72,46.34 0 0 0 365.31,184.81 Z" transform="translate(-6.33,-174.75)"/>
  <path style="fill:#fff" d="m 367.73,274.06 c -8.08,0 -14.63,7.28 -14.63,16.25 0,0.14 0.03,0.27 0.03,0.41 -0.01,1.22 -0.07,2.69 -0.03,3.75 0.19,5.18 1.32,9.14 2,13.91 1.23,10.21 2.26,18.67 1.63,26.53 -0.62,2.97 -2.8,5.68 -4.75,7.56 l -0.34,6.19 c -8.78,0.73 -17.61,2.06 -26.44,4.06 -37.97,8.62 -70.67,28.18 -95.56,54.59 -1.62,-1.1 -4.44,-3.13 -5.28,-3.75 -2.61,0.35 -5.25,1.16 -8.69,-0.84 -6.54,-4.41 -12.51,-10.49 -19.72,-17.81 -3.3,-3.5 -5.7,-6.84 -9.63,-10.22 -0.89,-0.77 -2.25,-1.8 -3.25,-2.59 -3.07,-2.45 -6.69,-3.72 -10.19,-3.84 -4.5,-0.15 -8.82,1.6 -11.66,5.16 -5.04,6.31 -3.42,15.97 3.59,21.56 0.07,0.06 0.15,0.1 0.22,0.16 0.96,0.78 2.14,1.78 3.03,2.44 4.17,3.08 7.97,4.65 12.13,7.09 8.75,5.4 16,9.88 21.75,15.28 2.25,2.39 2.64,6.61 2.94,8.44 l 4.69,4.19 c -25.09,37.76 -36.71,84.41 -29.84,131.94 l -6.13,1.78 c -1.61,2.08 -3.9,5.36 -6.28,6.34 -7.53,2.37 -15.99,3.24 -26.22,4.31 -4.8,0.4 -8.94,0.16 -14.03,1.13 -1.12,0.21 -2.68,0.62 -3.91,0.91 -0.04,0.01 -0.08,0.02 -0.13,0.03 -0.07,0.02 -0.15,0.05 -0.22,0.06 -8.62,2.08 -14.16,10.01 -12.38,17.81 1.78,7.81 10.2,12.56 18.88,10.69 0.06,-0.01 0.15,-0.02 0.22,-0.03 0.1,-0.02 0.18,-0.07 0.28,-0.09 1.21,-0.27 2.72,-0.56 3.78,-0.84 5,-1.34 8.63,-3.31 13.13,-5.03 9.68,-3.47 17.69,-6.37 25.5,-7.5 3.26,-0.26 6.7,2.01 8.41,2.97 l 6.38,-1.09 c 14.67,45.48 45.41,82.25 84.34,105.31 l -2.66,6.38 c 0.96,2.48 2.01,5.82 1.3,8.27 -2.84,7.36 -7.7,15.13 -13.24,23.79 -2.68,4 -5.42,7.11 -7.84,11.69 -0.58,1.1 -1.32,2.78 -1.88,3.94 -3.76,8.04 -1,17.31 6.22,20.78 7.27,3.5 16.28,-0.19 20.19,-8.25 0.01,-0.01 0.03,-0.02 0.03,-0.03 0,-0.01 0,-0.02 0,-0.03 0.56,-1.14 1.34,-2.64 1.81,-3.72 2.07,-4.75 2.76,-8.82 4.22,-13.41 3.87,-9.72 5.99,-19.92 11.32,-26.27 1.46,-1.74 3.84,-2.41 6.3,-3.07 l 3.31,-6 c 33.94,13.03 71.93,16.52 109.88,7.91 8.66,-1.97 17.01,-4.51 25.09,-7.56 0.93,1.65 2.66,4.83 3.13,5.63 2.51,0.82 5.24,1.24 7.47,4.53 3.99,6.81 6.71,14.86 10.03,24.59 1.46,4.59 2.18,8.66 4.25,13.41 0.47,1.08 1.26,2.6 1.81,3.75 3.89,8.08 12.94,11.79 20.22,8.28 7.22,-3.48 9.98,-12.74 6.22,-20.78 -0.56,-1.16 -1.33,-2.84 -1.91,-3.94 -2.42,-4.58 -5.16,-7.65 -7.84,-11.66 -5.54,-8.66 -10.13,-15.86 -12.97,-23.22 -1.19,-3.8 0.2,-6.16 1.13,-8.63 -0.55,-0.63 -1.74,-4.22 -2.44,-5.91 40.46,-23.89 70.3,-62.02 84.31,-106.06 1.89,0.3 5.18,0.88 6.25,1.09 2.2,-1.45 4.22,-3.34 8.19,-3.03 7.81,1.13 15.82,4.03 25.5,7.5 4.5,1.72 8.12,3.72 13.13,5.06 1.06,0.28 2.57,0.55 3.78,0.81 0.1,0.02 0.18,0.07 0.28,0.09 0.07,0.01 0.16,0.02 0.22,0.03 8.67,1.87 17.09,-2.88 18.88,-10.69 1.78,-7.81 -3.75,-15.73 -12.38,-17.81 -1.25,-0.29 -3.03,-0.77 -4.25,-1 -5.09,-0.96 -9.23,-0.73 -14.03,-1.13 -10.22,-1.07 -18.69,-1.94 -26.22,-4.31 -3.07,-1.19 -5.25,-4.84 -6.31,-6.34 l -5.91,-1.72 c 3.06,-22.15 2.24,-45.21 -3.06,-68.28 -5.35,-23.28 -14.8,-44.58 -27.41,-63.34 1.52,-1.38 4.38,-3.91 5.19,-4.66 0.24,-2.62 0.03,-5.38 2.75,-8.28 5.75,-5.4 13,-9.88 21.75,-15.28 4.15,-2.44 7.99,-4.02 12.16,-7.09 0.94,-0.7 2.23,-1.8 3.22,-2.59 7.02,-5.6 8.63,-15.25 3.59,-21.56 -5.04,-6.31 -14.8,-6.91 -21.81,-1.31 -1,0.79 -2.35,1.82 -3.25,2.59 -3.93,3.38 -6.35,6.71 -9.66,10.22 -7.21,7.33 -13.17,13.44 -19.72,17.84 -2.84,1.65 -6.99,1.08 -8.88,0.97 l -5.56,3.97 c -31.72,-33.26 -74.9,-54.53 -121.41,-58.66 -0.13,-1.95 -0.3,-5.47 -0.34,-6.53 -1.9,-1.82 -4.2,-3.38 -4.78,-7.31 -0.64,-7.86 0.43,-16.32 1.66,-26.53 0.68,-4.77 1.81,-8.73 2,-13.91 0.04,-1.18 -0.03,-2.88 -0.03,-4.16 0,-8.97 -6.55,-16.25 -14.63,-16.25 z" transform="translate(-6.33,-174.75)"/>
</svg>
